<svg width="76" height="66" viewBox="0 0 76 66" fill="none" xmlns="http://www.w3.org/2000/svg">
<path d="M69.2758 50.6983C58.8258 50.2867 52.1441 51.0783 21.3324 51.015C16.3608 51.015 8.4441 51.5217 8.12743 51.5533C6.89243 51.5533 5.27743 51.5533 5.4991 52.9467C5.5591 53.1869 5.70496 53.3968 5.90916 53.5368C6.11335 53.6768 6.36174 53.7372 6.60743 53.7067C24.4358 53.7067 66.7741 52.915 69.2758 52.8517C69.5613 52.8517 69.8352 52.7382 70.0371 52.5363C70.239 52.3344 70.3524 52.0605 70.3524 51.775C70.3524 51.4894 70.239 51.2156 70.0371 51.0137C69.8352 50.8118 69.5613 50.6983 69.2758 50.6983Z" fill="black"/>
<path d="M74.1206 43.4466C70.3522 40.0266 72.1256 46.9933 72.7589 29.8616C72.7589 25.4916 72.7589 21.09 72.6006 16.7516C72.6668 14.5634 72.5821 12.3732 72.3472 10.1966C71.2706 4.65496 67.1856 5.63663 62.3406 5.3833L53.1572 4.49663C47.2142 4.99053 41.2403 4.99053 35.2972 4.49663C28.7757 4.34459 22.251 4.58781 15.7589 5.22496C12.2756 5.22496 6.89225 4.6233 4.86558 7.8533C3.78891 9.59496 4.10558 8.8033 4.32725 30.2733C3.85177 34.5852 3.78815 38.9326 4.13725 43.2566C1.88891 43.5416 0.337247 44.3016 0.0205799 47.595C-0.0795106 51.2854 0.185669 54.9767 0.812247 58.615C1.31891 62.2883 0.87558 65.9933 5.75225 65.6133C6.04064 65.5969 6.31124 65.4686 6.50643 65.2557C6.70162 65.0427 6.80596 64.762 6.79725 64.4733C6.79725 62.7 4.48558 64.0616 3.63058 62.795C3.22133 61.3326 3.03976 59.8159 3.09225 58.2983C2.83891 56.2083 1.95225 48.165 3.09225 46.455C3.34558 46.1066 3.94725 46.1383 12.8139 45.4733C36.1522 43.5733 53.9806 46.17 63.1322 45.125C67.1856 44.65 71.8406 43.795 73.1389 46.8033C73.1389 58.9633 73.6456 60.61 72.5056 62.0666C71.9672 62.7316 68.6422 62.2566 69.3389 63.9983C69.3783 64.1169 69.4406 64.2266 69.5225 64.3211C69.6043 64.4156 69.7039 64.493 69.8157 64.5488C69.9275 64.6047 70.0492 64.638 70.1739 64.6468C70.2986 64.6556 70.4237 64.6397 70.5422 64.6C71.1122 64.41 72.0622 64.41 72.8222 64.1883C75.9889 63.2066 75.5139 57.855 75.5456 55.5433C75.7356 47.8166 76.8756 45.9483 74.1206 43.4466ZM69.5922 41.7366C65.5706 41.3566 66.2672 42.1483 56.5139 41.7366C32.3206 41.04 33.3022 39.8366 6.00558 42.8766C5.82341 38.6439 6.03543 34.4034 6.63891 30.21C6.98725 14.915 7.01891 11.6533 7.01891 11.21C7.01891 11.4316 7.01891 10.925 7.01891 11.21C7.01891 9.2783 7.84225 8.96163 9.86891 8.7083C11.8285 8.54713 13.7977 8.53654 15.7589 8.67663L30.3256 8.01163C43.3089 8.5183 43.3089 8.54996 45.7472 8.4233C51.2045 7.83039 56.7142 7.91549 62.1506 8.67663C63.3539 8.67663 67.8189 8.35996 68.4839 9.0883C69.9089 10.5766 69.4656 14.725 69.6556 16.9733C70.3474 25.2142 70.3262 33.4994 69.5922 41.7366Z" fill="black"/>
<path d="M31.5917 2.185C35.8096 2.45769 40.0406 2.45769 44.2584 2.185C44.5162 2.14094 44.7502 2.00711 44.9189 1.80717C45.0875 1.60723 45.1801 1.35408 45.1801 1.0925C45.1801 0.830918 45.0875 0.577767 44.9189 0.37783C44.7502 0.177893 44.5162 0.0440572 44.2584 0C36.4367 0 36.5317 0.348333 31.5917 0.316667C31.3734 0.357028 31.1762 0.472562 31.0342 0.643209C30.8922 0.813856 30.8145 1.02884 30.8145 1.25083C30.8145 1.47283 30.8922 1.68781 31.0342 1.85846C31.1762 2.02911 31.3734 2.14464 31.5917 2.185Z" fill="black"/>
<path d="M36.0569 16.0549C24.0235 19.2215 27.4752 38.9499 41.0919 35.7199C54.1069 32.6165 48.3435 12.7299 36.0569 16.0549ZM44.5435 29.6715C43.4366 30.9953 41.9168 31.9085 40.2284 32.2646C38.5399 32.6207 36.7808 32.3989 35.2335 31.6349C31.5919 29.9882 29.8185 20.8999 36.7852 18.4932C43.1502 16.0549 47.8685 24.8265 44.5435 29.6715Z" fill="black"/>
<path d="M65.159 32.6799C61.5823 32.179 57.9491 32.2432 54.3924 32.8699C54.1446 32.9245 53.9287 33.0753 53.7921 33.2891C53.6555 33.5028 53.6094 33.7621 53.664 34.0099C53.7186 34.2576 53.8694 34.4736 54.0832 34.6102C54.297 34.7468 54.5563 34.7928 54.804 34.7382C57.6223 34.2632 60.7257 35.0866 65.254 34.7382C65.417 34.7796 65.5874 34.7822 65.7515 34.7459C65.9157 34.7095 66.0691 34.6353 66.1994 34.529C66.3297 34.4227 66.4333 34.2874 66.5019 34.1339C66.5704 33.9804 66.6021 33.813 66.5944 33.645C66.5866 33.477 66.5397 33.3132 66.4572 33.1667C66.3748 33.0202 66.2591 32.895 66.1196 32.8012C65.9801 32.7073 65.8205 32.6475 65.6537 32.6265C65.4869 32.6054 65.3175 32.6237 65.159 32.6799Z" fill="black"/>
<path d="M66.014 14.6934C65.7478 14.1343 65.349 13.6487 64.8523 13.2789C64.3555 12.9092 63.776 12.6664 63.164 12.5717C60.111 12.039 56.9792 12.1686 53.9807 12.9517C51.7007 13.5534 51.5424 21.66 52.4924 24.035C53.4424 26.41 57.6224 26.1884 59.554 26.315C62.119 26.315 65.8874 27.36 66.7424 22.515C66.9812 19.8852 66.7343 17.2339 66.014 14.6934ZM54.5507 15.0417C57.1083 14.6105 59.727 14.7075 62.2457 15.3267C59.3878 16.5472 56.7874 18.2987 54.5824 20.4884C54.1655 18.6979 54.1547 16.8369 54.5507 15.0417ZM62.8474 22.705C60.3601 22.9013 57.8613 22.9013 55.374 22.705C57.8326 20.6274 60.4714 18.7728 63.259 17.1634C63.3729 19.0207 63.2344 20.8849 62.8474 22.705Z" fill="black"/>
<path d="M24.3727 15.1367C23.296 11.02 18.3243 12.5083 11.3577 13.3C11.2495 13.1399 11.0935 13.018 10.912 12.9517C10.7305 12.8854 10.5327 12.878 10.3467 12.9306C10.1608 12.9833 9.99621 13.0932 9.87638 13.2448C9.75655 13.3964 9.6876 13.5819 9.67934 13.775C9.41027 17.1686 9.41027 20.5781 9.67934 23.9717C9.87566 27.336 9.87566 30.709 9.67934 34.0733C9.901 37.24 13.8593 37.4617 16.9943 37.24C18.451 37.24 22.6627 36.575 23.3277 36.4167C26.241 35.6883 25.861 32.0467 25.8293 29.925C25.609 24.973 25.1227 20.0365 24.3727 15.1367ZM14.0177 33.6617H13.036C12.751 29.925 11.516 18.4933 11.516 15.3267H15.411L15.7593 33.63C15.1812 33.6975 14.5979 33.7081 14.0177 33.6617ZM18.1027 33.3133C18.3866 27.2457 18.1536 21.1648 17.406 15.1367C18.3243 15.1367 20.826 14.8517 21.5227 15.4533C21.9027 22.3883 22.3777 32.4267 22.251 32.8067C20.894 33.1439 19.5009 33.3141 18.1027 33.3133Z" fill="black"/>
</svg>
