<svg width="66" height="13" viewBox="0 0 66 13" fill="none" xmlns="http://www.w3.org/2000/svg">
<path d="M64.7797 1.71791C54.4251 -0.688151 47.5477 2.47676 16.7375 0.511994C11.7635 0.24053 3.71999 2.0673 3.39547 2.19119C2.15991 2.12376 0.544179 2.03556 0.426893 8.26C0.428468 9.33427 0.523315 10.2783 0.693529 10.9137C0.863743 11.5491 1.09754 11.8321 1.35079 11.7091C19.1872 12.6826 61.7375 11.4646 64.2557 11.3188C64.5414 11.3344 64.8429 10.8436 65.0941 9.95433C65.3452 9.0651 65.5253 7.85029 65.5948 6.57714C65.6643 5.30398 65.6175 4.07676 65.4646 3.16548C65.3117 2.25419 65.0653 1.7335 64.7797 1.71791Z" fill="#B50909"/>
<path d="M63.3216 1.91477C62.5298 1.77393 61.4818 1.60233 60.6845 1.49684C60.4341 1.46344 60.5641 1.45091 60.3911 1.42745C60.0522 1.38225 59.7353 1.3671 59.3992 1.32902C59.2877 1.31638 59.4301 1.285 59.313 1.27277C58.6727 1.2069 58.0635 1.18689 57.4093 1.15718C54.191 1.01892 51.0041 1.16768 47.7235 1.25691C46.6306 1.28915 45.3354 1.29357 44.1993 1.34095C44.0715 1.34641 44.1487 1.38117 44.1245 1.38487C43.7424 1.4416 43.8678 1.36382 43.6146 1.36045C42.5895 1.34769 41.4678 1.36679 40.5089 1.39479C40.0964 1.40677 40.5122 1.47424 40.0939 1.43878C40.0648 1.43639 40.1699 1.39588 40.0556 1.39319C39.7963 1.38727 39.2985 1.39965 39.108 1.39821C38.7288 1.39544 38.6653 1.39631 38.3 1.39826C37.7898 1.40053 37.2146 1.38295 36.6805 1.39181C36.5664 1.39381 36.7176 1.43396 36.5354 1.44073C36.3551 1.44758 35.8596 1.4431 35.7015 1.43295C35.5431 1.42289 35.6107 1.3916 35.5826 1.38427C35.3531 1.3225 34.7998 1.40352 34.7272 1.40495C33.3973 1.43051 32.2979 1.36609 31.0805 1.34146C30.1573 1.3228 29.1514 1.31281 28.277 1.28414C27.2 1.24865 26.3471 1.19679 25.306 1.15945C25.1964 1.15544 25.323 1.20769 25.189 1.20286C23.8048 1.153 22.375 1.08123 21.015 0.978075C20.8756 0.967528 21.0576 0.935612 20.9185 0.922588C20.0557 0.843737 18.7166 0.684904 18.2017 0.834158C17.742 0.80102 17.1969 0.761543 16.7248 0.710907C16.6121 0.699516 16.5006 0.688455 16.3955 0.677329C16.0617 0.644018 16.3879 0.606614 15.9801 0.6179C15.8877 0.621017 16.0074 0.661883 15.8687 0.663861C15.2894 0.672747 14.6541 0.679498 14.0804 0.732308C13.9641 0.743143 13.9979 0.776747 13.9653 0.78503C13.6892 0.852329 13.2231 0.801952 13.1206 0.80454C12.3486 0.821876 11.7895 0.900255 11.0756 0.985719C10.9102 1.00583 11.1116 1.02883 10.9525 1.05003C10.1274 1.15977 9.27247 1.28071 8.46479 1.39068C8.28655 1.41487 8.44314 1.34827 8.35773 1.3578C7.97328 1.40218 7.90671 1.49114 7.54072 1.53792C7.46451 1.54782 7.50114 1.50621 7.48668 1.50488C7.26102 1.48372 7.08257 1.60211 7.02912 1.61371C6.32682 1.76788 5.86528 1.76703 5.18091 1.92023C5.09937 1.93873 5.2917 1.94364 5.0639 1.99275C4.54184 2.10757 3.9479 2.23207 3.46143 2.36394L3.3854 2.37583C2.87505 2.33933 2.38372 2.34614 2.00236 2.60933C1.61865 2.86478 1.36616 3.30642 1.18531 3.7476C1.09845 3.96793 1.12573 3.79809 1.11679 3.81021C0.975802 4.01483 1.01514 4.19611 0.998155 4.26841C0.859399 4.86469 0.710401 5.41134 0.759884 5.84101C0.654066 6.63485 0.610947 7.45298 0.594994 8.26317C0.600439 9.14154 0.645822 10.0354 0.851425 10.8714C0.898693 11.0514 0.955551 11.2283 1.03597 11.379C1.12071 11.5357 1.21272 11.6179 1.28503 11.5737L1.31904 11.5569L1.35899 11.5588C1.84497 11.5935 2.34893 11.6305 2.86949 11.6716C2.90331 11.6742 2.84072 11.7133 2.90824 11.7183C3.69839 11.7762 3.53775 11.7037 4.06491 11.6449C4.19668 11.6301 4.59967 11.7411 4.63634 11.7494C4.76756 11.7801 4.62824 11.8375 4.67233 11.8441C5.04066 11.8965 4.98253 11.6885 5.458 11.7041C5.47287 11.7049 5.40915 11.7408 5.44894 11.7458C5.57263 11.7617 5.69685 11.7506 5.8192 11.7674C6.09992 11.8063 6.19684 11.9096 6.63693 11.8637C6.69175 11.8577 6.6144 11.7388 7.04849 11.756C7.21452 11.763 7.96799 11.7799 8.18394 11.7922C8.39796 11.8047 8.25002 11.839 8.26524 11.841C8.84357 11.9039 8.6238 11.9195 8.91491 11.9996C9.20903 12.0792 9.12499 11.9021 9.24267 11.885C9.35795 11.8679 9.77345 11.917 9.87659 11.9332C9.97925 11.9494 9.85041 11.971 9.94181 11.9807C10.5499 12.0446 10.2108 11.8986 10.4126 11.8744C10.8881 11.8167 11.2703 11.9527 11.6923 11.9715C11.8083 11.9766 11.714 11.9457 11.8175 11.9444C12.2281 11.9396 12.4761 11.9834 12.9508 11.9519C13.0273 11.9468 13.4173 11.8732 13.6613 11.933C13.6957 11.9417 13.5974 11.973 13.7715 11.9821C14.0314 11.9957 14.5034 12.0073 14.7873 11.9988C14.9968 11.9926 14.757 11.9372 15.0208 11.956C15.1382 11.9644 14.9202 11.9938 15.1408 12.0069C15.3581 12.02 15.9311 12.0227 16.1361 12.0229C16.3465 12.0231 16.2316 11.9819 16.2486 11.9793C16.3514 11.9643 16.7568 11.9471 16.7929 11.9473C18.6161 11.952 20.2926 12.0224 22.0545 11.9974C22.1933 11.9955 22.1007 11.9529 22.1219 11.9522C22.5974 11.9335 22.2226 12.0476 22.5552 12.085C22.507 11.9985 22.7032 12.0138 23.0394 12.0035C23.2014 11.9984 23.1131 11.9651 23.1279 11.9616C23.369 11.91 23.5336 11.9753 23.5767 11.9886C23.7347 12.0376 23.9065 11.9785 24.0142 12.0113C24.1218 12.0437 23.8744 12.0933 24.195 12.0915C24.2847 12.0602 24.0464 11.98 24.2898 11.966C25.2092 11.9131 26.9268 11.9668 27.6663 11.9679C28.4048 11.9692 28.6432 11.9615 29.0733 11.9692C29.8502 11.9828 29.5651 11.9251 30.047 11.8933C30.5302 11.8613 30.2966 12.0114 30.3664 12.0426C30.4349 12.0737 30.5091 12.0403 30.5941 12.057C30.6788 12.0736 30.4959 12.097 30.6949 12.1017C30.8933 12.1063 31.4388 12.0443 31.509 12.0103C31.6577 11.9383 31.4114 11.867 31.939 11.8874C31.9694 11.8886 31.8714 11.9286 31.9875 11.9313C32.9093 11.9514 33.866 11.9421 34.7888 11.9568C34.9154 11.9589 34.8028 12.0036 34.8764 12.0053C35.6432 12.0231 35.3682 11.9537 35.786 11.8671C35.6944 11.9761 35.9227 12.0392 36.5101 12.0317C36.8616 12.0272 36.8004 11.9809 37.0268 11.9445C37.0948 11.9335 37.343 11.9623 37.3875 11.9395C37.5342 11.8649 37.3007 11.7873 37.8996 11.8108C37.9259 11.8119 37.8429 11.8528 37.9336 11.8539C38.5185 11.8608 38.5884 11.784 39.2281 11.7649C39.7307 11.7498 40.6092 11.7817 41.1778 11.7796C41.1681 11.9011 41.7084 11.8641 41.9246 11.7767C42.2941 11.7737 42.6905 11.7619 43.0432 11.7671C43.1645 11.7689 43.0855 11.8054 43.1008 11.8089C43.3352 11.8642 43.4952 11.7799 43.5761 11.7752C44.4507 11.7281 45.1388 11.7766 45.9623 11.7001C45.9918 11.6973 46.0384 11.6122 46.2617 11.6692C46.2761 11.6732 46.0028 11.717 46.3931 11.7121C46.785 11.7073 47.5074 11.7377 48.039 11.6875C48.1716 11.6753 48.5043 11.5999 48.7704 11.6476C48.8059 11.6541 48.7678 11.6791 48.8191 11.6914C48.9846 11.7307 49.0725 11.6436 49.266 11.7118C49.464 11.7798 49.843 11.8258 50.3977 11.7635C50.4153 11.7616 50.5445 11.6912 50.7167 11.6884C50.9919 11.684 51.3779 11.6892 51.6574 11.6823C51.7913 11.6789 51.7046 11.639 51.7279 11.6377C52.6299 11.5933 53.3048 11.6145 54.2687 11.6069C54.4545 11.6054 54.9768 11.5352 55.3192 11.5716C55.7009 11.6113 55.2974 11.8276 56.1869 11.7555C56.5516 11.7264 56.9888 11.4538 57.613 11.5722C58.8864 11.5039 59.9605 11.5427 61.2359 11.4554C61.291 11.4516 61.4524 11.3737 61.5782 11.3707C61.7897 11.3657 61.9004 11.3962 62.0407 11.3939C62.3339 11.3895 62.5789 11.3766 62.8842 11.3606C63.0254 11.353 63.1565 11.3454 63.2785 11.339C63.4066 11.3325 63.585 11.3248 63.7122 11.3208C63.9132 11.3143 63.8171 11.354 64.1083 11.3427C64.1712 11.3402 64.2185 11.3353 64.2563 11.3294C64.4406 11.3163 64.5401 11.1668 64.6889 10.9631C64.8347 10.7518 65.0229 10.5396 65.1404 10.2086C65.0922 10.1855 65.0956 10.1033 65.1212 9.96198C65.1408 9.85276 65.1734 9.70831 65.2045 9.52719C65.218 9.4476 65.1669 9.52434 65.1716 9.48646C65.1898 9.33205 65.2454 9.19711 65.2553 9.04901C65.2577 9.01279 65.2266 9.00547 65.2267 8.97582C65.2275 8.72436 65.359 8.33182 65.3804 8.26307C65.4644 8.00174 65.4376 7.871 65.4788 7.66712C65.519 7.46309 65.5102 7.77369 65.5463 7.53387C65.5888 7.24705 65.6197 6.9107 65.6388 6.57954C65.6531 6.33605 65.6613 6.09541 65.6665 5.87913C65.6708 5.67527 65.6256 5.81364 65.6252 5.78444C65.6222 5.36428 65.6582 4.93676 65.5635 4.70741C65.768 4.40639 65.5377 4.45472 65.5286 3.8552C65.5274 3.80833 65.625 3.73658 65.6577 3.91769C65.6901 4.09898 65.6776 4.37781 65.7121 4.63019C65.7213 4.6895 65.8289 5.03143 65.8349 5.07914C65.8867 5.44903 65.7285 5.50101 65.7205 5.52039C65.6289 5.73962 65.722 6.16039 65.7239 6.27198C65.7266 6.37938 65.7262 6.48305 65.7238 6.58417C65.7144 6.96111 65.6773 7.29774 65.6611 7.6324C65.6466 7.90997 65.7436 7.94918 65.7125 8.16669C65.5999 8.89067 65.4197 9.10951 65.3755 9.80972C65.3668 9.91608 65.4372 9.89011 65.399 10.0405C65.3825 10.1036 65.3474 10.1972 65.273 10.3414C65.2577 10.3742 65.0538 10.7241 64.9817 10.9621C64.9727 10.9927 65.0024 11.0061 64.9842 11.0449C64.9248 11.1679 64.8565 11.2695 64.7609 11.3698C64.6629 11.4598 64.5393 11.608 64.2397 11.6123L64.2727 11.6122C64.2675 11.6128 64.2622 11.6134 64.2567 11.6141C64.2071 11.62 64.1427 11.6266 64.061 11.6337C63.9756 11.6408 63.8848 11.6477 63.8259 11.6525C63.6904 11.6629 63.526 11.6711 63.3424 11.6723C63.1825 11.6717 62.9437 11.6197 62.849 11.6082C62.5637 11.5755 62.3304 11.653 62.1721 11.6066C62.0137 11.56 62.3216 11.4714 61.9029 11.4515C61.8898 11.536 61.8562 11.6234 61.8331 11.7088C60.9322 11.7345 60.0636 11.7332 59.1243 11.7636C59.0074 11.7675 59.1223 11.8095 59.0064 11.8145C58.5237 11.8354 58.0768 11.8155 57.5275 11.8432C57.1385 11.8639 56.6975 11.9235 56.2612 11.9469C55.9763 11.8582 55.3772 11.9063 54.9123 11.9092C54.7505 11.9102 54.7605 11.8843 54.6445 11.8788C54.2042 11.8588 54.4118 11.9386 54.2911 11.955C53.773 12.0249 53.7472 11.8331 53.1472 11.8523C53.1162 11.8533 52.7286 11.9651 52.6739 11.9728C52.3298 12.0226 52.6162 11.9385 52.3994 11.936C51.9944 11.9317 51.751 11.9129 51.2947 11.9534C51.163 11.9653 50.846 12.0365 50.5834 11.9929C50.5489 11.9872 50.5671 11.9529 50.5394 11.9516C50.034 11.9298 50.0286 12.0364 49.7514 12.0786C49.4751 12.1208 49.0388 12.0567 48.9491 12.0374C48.7154 11.9876 49.1268 12.0101 49.1388 12.0045C49.2845 11.9373 48.9684 11.9552 48.7237 11.955C48.6864 11.8513 48.3432 11.8649 48.4696 11.9552C48.484 11.9651 48.6746 11.9513 48.7237 11.955C48.5148 12.062 48.1231 12.0834 47.719 11.996C47.5276 11.9551 47.7083 11.8991 47.127 11.9302C46.8622 11.9442 46.9662 12.014 46.7317 12.0384C46.1945 12.094 45.4875 12.0409 44.9438 12.0619C44.7442 12.0695 44.9396 12.1051 44.8031 12.1117C44.4405 12.1293 44.1178 12.1059 43.7487 12.1278C43.7152 12.1299 43.7978 12.1695 43.6829 12.1722C42.8181 12.1929 42.0813 12.1796 41.1696 12.1943C40.7328 12.2014 39.9655 12.2367 39.5122 12.2393C38.7246 12.2441 37.7714 12.1985 37.1035 12.2226C36.668 12.2381 36.7639 12.2779 36.5773 12.3086C36.2149 12.3681 35.5801 12.2791 35.4944 12.2651C35.4919 12.2647 35.8644 12.25 35.6653 12.2315C35.5491 12.189 35.4986 12.2649 35.4944 12.2651C35.4385 12.2562 34.6918 12.2565 34.543 12.2661C34.4623 12.2715 34.508 12.3099 34.4659 12.312C33.4614 12.3594 32.467 12.3807 31.4501 12.3729C31.4322 12.3723 31.4587 12.3283 31.4166 12.3274C30.8275 12.314 30.4543 12.371 29.9702 12.4071C29.4865 12.4432 29.1024 12.4357 28.8153 12.3631C28.4503 12.3755 27.9253 12.3463 27.6236 12.3282C27.3218 12.3102 27.2803 12.3955 27.2538 12.3974C26.4263 12.4566 25.9504 12.4107 25.0889 12.4073C24.6799 12.4055 23.871 12.421 23.4313 12.4315C23.082 12.44 22.8692 12.4206 22.5469 12.434C22.5033 12.4358 22.5475 12.4736 22.5342 12.4751C22.1744 12.521 22.3472 12.4282 22.2729 12.4118C22.0038 12.3521 21.8375 12.3204 21.3791 12.349C21.2731 12.3556 20.9668 12.489 20.7732 12.4967C20.5198 12.5066 20.6154 12.4589 20.3505 12.4703C20.3279 12.4712 20.3325 12.5007 20.1693 12.4993C19.4082 12.4931 18.6044 12.4742 17.8085 12.4741C17.7008 12.4739 17.8387 12.5212 17.6831 12.5218C16.9491 12.5244 16.1747 12.5183 15.4546 12.491C15.2792 12.4842 15.3894 12.4523 15.3514 12.4423C15.118 12.3817 14.7878 12.4644 14.7335 12.4655C13.4544 12.4953 12.4352 12.4062 11.1336 12.4229C11.0599 12.424 10.4979 12.5064 10.2529 12.4234C10.236 12.4179 9.99293 12.3332 9.77769 12.3841C9.76436 12.3872 9.91443 12.4315 9.65119 12.4223C9.3883 12.413 8.96893 12.4322 8.59432 12.3785C8.47749 12.3616 8.20285 12.2753 7.85778 12.3309C7.83466 12.3349 7.30327 12.4662 7.12087 12.3615C7.08757 12.3442 7.13745 12.2402 6.71071 12.2826C6.63022 12.2908 6.77499 12.3184 6.56355 12.3272C6.23976 12.3407 5.81821 12.2998 5.43257 12.3342C5.36304 12.3403 5.08511 12.4028 4.84929 12.3402C4.81216 12.3304 4.88441 12.2977 4.75847 12.2893C4.15773 12.2492 3.55843 12.2492 2.97472 12.1992C2.75858 12.181 2.87131 12.1291 2.64826 12.1036C2.4247 12.0783 1.98443 12.0422 1.75989 12.0565C1.53503 12.0709 1.77332 12.1743 1.44026 12.1639C1.40211 12.1627 1.36408 12.1614 1.32618 12.16L1.54807 12.1153C1.35131 12.2398 0.958002 12.1869 0.805864 12.046C0.637715 11.9177 0.563019 11.7918 0.496422 11.6778C0.370477 11.4481 0.306968 11.2405 0.250565 11.0324C0.0163632 10.0833 0.00100456 9.17542 0.00294344 8.26062C0.00810867 8.07873 0.0139654 7.91004 0.020377 7.74579C0.0296058 7.52489 -0.0104186 7.70486 0.00319676 7.37439C0.0464323 6.16709 0.232315 4.02215 0.909635 3.00293C1.46988 2.22776 0.842569 3.24854 1.27047 2.66886C1.48191 2.39682 1.75941 2.08459 1.84872 2.03941C2.44968 1.69537 2.9851 1.77475 3.41694 1.7978L3.25495 1.82313C3.47526 1.75494 3.59348 1.73418 3.77707 1.68535C3.90284 1.65294 3.76696 1.64066 3.87839 1.61272C4.26633 1.51576 4.67424 1.44793 5.04086 1.36849C5.21007 1.33191 5.17032 1.30675 5.32172 1.27854C5.69266 1.20927 6.00882 1.16161 6.37688 1.1233C6.40988 1.11993 6.19877 1.20102 6.46742 1.152C6.90888 1.07152 7.45058 1.00523 7.95164 0.889531C8.09839 0.855516 8.09679 0.779685 8.42415 0.778702C8.49369 0.778531 8.41986 0.880523 8.78567 0.744368C8.84467 0.721547 9.46146 0.521467 9.7832 0.544572C9.86803 0.550357 10.0857 0.593826 10.2659 0.557943C10.2903 0.552808 10.1861 0.526346 10.3363 0.502233C10.8627 0.41859 11.42 0.355314 11.9647 0.285623C12.1103 0.267022 11.8884 0.248273 12.1059 0.222051C12.7033 0.149813 13.4549 0.0985906 14.0461 0.0795157C14.2629 0.0726096 14.1151 0.115051 14.1311 0.117909C14.3885 0.16515 14.5359 0.0773867 14.6198 0.0692877C15.1472 0.0210234 15.5472 0.0538859 16.0377 0.0509054C16.1723 0.0506048 16.0777 0.00975113 16.1045 0.00674997C16.3828 -0.0209664 16.172 0.0441628 16.3505 0.0570041C16.4856 0.0672361 16.6232 0.0771435 16.7606 0.0873777C17.1411 0.118995 17.5291 0.140491 17.8869 0.158608C18.0669 0.167647 17.8675 0.110073 18.0289 0.118678C18.9786 0.168356 19.9568 0.228218 20.8959 0.302803C21.0704 0.316797 20.9586 0.345907 20.9946 0.355796C21.243 0.424813 21.6111 0.367307 21.6947 0.364232C22.0774 0.350312 22.213 0.387912 22.5654 0.399127C24.2475 0.451957 26.2814 0.553466 27.8537 0.61499C29.8856 0.694591 31.4806 0.762943 33.4329 0.778981C33.5548 0.779941 33.4325 0.731979 33.5375 0.732192C34.9258 0.737302 36.2926 0.760919 37.6523 0.742373C37.7675 0.740902 37.6006 0.697496 37.7868 0.693613C38.169 0.685329 38.6442 0.684548 39.0164 0.695225C39.198 0.700347 38.955 0.74041 39.1376 0.744771C39.5507 0.755097 40.0441 0.752379 40.4794 0.738959C40.6667 0.733108 40.3836 0.692198 40.6268 0.688071C42.3039 0.658344 43.9257 0.610694 45.6209 0.616131C45.7311 0.616691 45.8438 0.704849 46.0913 0.679281C46.1092 0.653259 46.1072 0.623396 46.1145 0.595966C48.5479 0.504247 50.9573 0.429746 53.4039 0.380663C53.5081 0.378684 53.3272 0.333867 53.5286 0.329856C54.6828 0.307598 55.8121 0.285278 57.0013 0.361085C57.1193 0.368819 57.0534 0.451838 57.4033 0.449253C57.4656 0.448169 57.9894 0.456013 58.1241 0.444384C58.1425 0.442449 58.0494 0.398187 58.2171 0.404831C59.2011 0.444896 60.2276 0.536546 61.2002 0.681584C61.3568 0.705097 61.1843 0.726355 61.2957 0.743561C62.0877 0.865379 62.9505 0.973476 63.6936 1.16059C64.1918 1.28744 63.9882 1.32162 64.2378 1.44819C64.2727 1.46575 64.5809 1.53555 64.5878 1.58054C64.6053 1.6928 64.431 1.77218 64.4673 1.89582C64.4745 1.92176 64.8916 1.99125 64.6349 1.99214C64.6168 1.99169 64.3158 1.94373 64.2392 1.94775C64.1858 1.95017 64.2676 2.01172 64.161 2.00655C64.0545 2.00153 63.949 1.94232 63.7755 1.92785C63.6006 1.9139 63.6649 1.97537 63.3216 1.91477ZM26.266 12.2471C25.9871 12.2078 25.9468 12.3576 26.248 12.3201C26.2626 12.3181 26.2804 12.249 26.266 12.2471ZM60.0436 11.6205C59.6866 11.565 59.4302 11.6694 59.6931 11.7127C59.9534 11.7561 60.1514 11.6373 60.0436 11.6205ZM63.8233 11.4477C63.4154 11.4119 63.3436 11.6268 63.7952 11.5662C63.8193 11.5628 63.8452 11.4499 63.8233 11.4477ZM63.0053 1.22671C63.0087 1.22915 63.23 1.2713 63.2358 1.27054C63.3627 1.24535 62.9193 1.16079 63.0053 1.22671ZM65.4746 8.3752C65.4283 8.50301 65.3971 8.88753 65.4597 8.72969C65.5114 8.60238 65.5339 8.21527 65.4746 8.3752ZM11.7028 12.0447C11.6984 12.0424 11.5387 12.038 11.5417 12.0507C11.5519 12.0914 11.7746 12.0832 11.7028 12.0447ZM65.1939 2.02865C65.5547 2.93379 65.4003 3.5245 65.2143 2.53885C65.1702 2.36186 65.3683 2.90517 65.3254 2.67588C65.2344 2.27357 65.0729 1.93806 64.7825 1.77835C64.7491 1.77412 64.8487 1.72964 64.9699 1.80567C65.0876 1.87488 65.1825 2.00595 65.1949 2.0301C65.1946 2.02962 65.1942 2.02914 65.1939 2.02865ZM26.1045 12.0684C26.0989 12.0664 25.8754 12.0658 25.87 12.0678C25.7491 12.1159 26.1996 12.1172 26.1045 12.0684ZM2.25971 11.6842C2.24605 11.6795 1.7325 11.6498 1.71729 11.6527C1.44531 11.7168 2.48298 11.7772 2.25971 11.6842ZM41.1869 11.7827C41.4331 11.7307 41.7271 11.7201 41.9235 11.7766C41.6799 11.7777 41.4337 11.7814 41.1869 11.7827Z" fill="#B50909"/>
</svg>
