<svg width="59" height="22" viewBox="0 0 59 22" fill="none" xmlns="http://www.w3.org/2000/svg">
<g clip-path="url(#clip0_89_417)">
<rect width="59" height="22" fill="#EEEAE3"/>
<path d="M58.9862 2.23275C58.9987 2.09136 58.9832 1.9489 58.9406 1.81349C58.898 1.67809 58.8292 1.55241 58.738 1.44361C58.6468 1.33481 58.5352 1.24503 58.4093 1.17939C58.2834 1.11376 58.1459 1.07356 58.0045 1.06108C57.8631 1.04861 57.7207 1.0641 57.5853 1.10668C57.4499 1.14927 57.3242 1.2181 57.2154 1.30926C57.1066 1.40041 57.0168 1.5121 56.9512 1.63796C56.8855 1.76381 56.8453 1.90136 56.8328 2.04275C56.4528 12.6828 56.5478 16.0711 55.6295 17.3378C47.9736 16.9735 40.3016 17.1534 32.6712 17.8761C12.2778 18.4144 13.6712 18.0344 3.79117 18.2561C3.53784 18.2561 3.03117 17.9078 2.80951 18.0661C3.06284 8.91442 2.80951 5.62108 2.80951 2.73942C2.80951 -0.142249 0.751174 1.06108 0.751174 2.73942C0.751174 4.41775 0.751173 1.31442 0.21284 15.4061C0.21284 16.5778 -0.420493 18.5728 0.497841 19.9661C0.890166 20.4176 1.37756 20.7767 1.92505 21.0176C2.47254 21.2585 3.06657 21.3752 3.66451 21.3594C12.2145 21.5811 13.1645 21.8028 18.6428 21.8344C40.8095 21.8344 37.9912 20.2511 54.9962 20.2511C59.8095 20.1561 58.9862 16.3244 58.9862 2.23275Z" fill="black"/>
<path d="M46.668 5.74782C37.643 6.03282 31.4997 5.20949 23.1713 5.74782C20.0047 6.03282 8.88967 7.23615 8.79467 7.23615C8.7684 5.34716 8.59902 3.46288 8.28801 1.59948C8.03467 0.776149 6.19801 0.459483 6.35634 1.88448V7.61615C6.35634 9.04115 7.74967 9.70615 9.17467 9.89615C10.0613 9.89615 7.08467 9.89615 30.0747 9.10448C34.5397 9.10448 37.8963 9.10449 42.963 8.88282C50.0247 8.15449 50.1197 8.47115 51.1963 7.93282C53.603 6.69782 53.1913 3.94282 52.8113 0.459486C52.8113 -0.14218 50.563 -0.300516 50.5947 0.902818C50.7213 7.04615 50.4047 5.68449 46.668 5.74782Z" fill="black"/>
</g>
<defs>
<clipPath id="clip0_89_417">
<rect width="59" height="22" fill="white"/>
</clipPath>
</defs>
</svg>
