<svg width="151" height="73" viewBox="0 0 151 73" fill="none" xmlns="http://www.w3.org/2000/svg">
<path d="M35.9824 12.0236C35.3003 12.2799 33.0226 13.7223 31.2137 15.6658C29.0934 17.944 22.2545 22.0657 16.8901 26.0648C14.1615 28.0989 12.7308 31.4429 11.1206 34.0115C9.21313 37.0541 9.28009 41.4169 10.0439 44.6516C10.3213 45.8265 11.7934 46.4306 13.1026 47.032C17.6351 49.114 24.9789 47.9646 26.824 49.3235C27.7908 50.0356 27.5509 52.2237 27.4313 54.2911C27.2778 56.946 23.8001 58.5208 18.9891 60.8276C15.326 62.7 9.64838 65.673 6.26972 67.8345C5.54827 68.3203 4.84962 68.7777 3.50098 69.336" stroke="#641A33" stroke-width="7" stroke-linecap="round"/>
<path d="M42.8429 49.6401C44.0756 49.0204 47.8953 46.938 50.4475 45.4951C52.0791 44.5726 53.3242 43.5173 54.1038 42.5897C55.0459 41.4689 55.0909 39.1848 54.887 36.7924C54.7276 34.9226 53.2906 33.6774 52.1519 32.652C51.1677 31.7657 49.2044 31.7219 46.9812 31.9404C43.5888 32.2738 42.3998 35.4682 40.7804 38.6394C39.2094 41.7161 38.8361 44.648 38.7708 51.948C38.7508 54.1802 39.7756 55.3288 40.4507 56.361C41.1207 57.3854 42.4458 57.8277 44.1712 58.0649C48.5477 58.6665 52.1396 56.0499 55.0626 54.2276C59.0386 51.7487 64.1635 47.3366 68.0694 44.2268C70.2286 42.7129 72.2524 41.4772 73.9701 40.5483C74.7279 40.1472 75.2542 39.8887 76.3448 39.3025" stroke="#641A33" stroke-width="7" stroke-linecap="round"/>
<path d="M76.3447 39.3025C76.3835 39.3025 76.988 39.2759 77.9924 39.6873C86.7302 43.2662 78.7864 62.8762 78.6728 61.5052C78.237 56.2489 84 46.1796 87.6574 39.9012C89.1508 37.3376 92.1881 34.5229 95.1848 31.7702C96.2674 30.9154 97.5644 29.8976 99.0234 28.7717C99.6811 28.2863 100.171 27.9754 100.997 27.4832" stroke="#641A33" stroke-width="7" stroke-linecap="round"/>
<path d="M124.3 30.9363C122.724 30.9363 118.025 31.2666 112.071 34.4982C106.834 37.3407 104.265 42.185 102.47 45.26C100.769 48.1748 99.488 50.8187 97.3223 55.3032C96.4569 57.0953 96.2664 59.5279 96.4488 62.0086C96.5173 62.9403 97.2653 63.0813 97.9054 63.1701C100.601 63.5439 103.469 61.7183 109.053 57.8276C113.192 54.9439 115.479 51.2617 117.207 47.9184C118.837 44.763 118.178 40.3062 118.984 36.1801C119.16 35.28 119.281 34.7178 119.4 35.2072C120.528 39.8474 121.111 43.5187 122.036 45.7948C122.944 48.0286 124.246 50.7484 125.734 53.0527C127.2 55.3223 132.747 53.9418 136.996 53.0532C139.748 51.7874 143.383 49.4646 145.921 47.1062C146.3 46.6268 146.606 46.1594 147.292 45.0142" stroke="#641A33" stroke-width="7" stroke-linecap="round"/>
<path d="M120.711 23.4709C120.711 23.389 121.417 21.9718 123.18 18.89C124.236 17.1832 125.619 15.1863 127.16 12.663C128.7 10.1398 130.355 7.15058 132.156 3.50073" stroke="#641A33" stroke-width="7" stroke-linecap="round"/>
</svg>
