<svg width="155" height="71" viewBox="0 0 155 71" fill="none" xmlns="http://www.w3.org/2000/svg">
<path d="M38.3174 10.01C37.7164 10.01 34.9939 10.5338 25.569 15.3514C18.7953 18.8138 13.7218 27.5202 12.3644 29.0857C10.9024 30.7717 9.59009 31.7396 8.95746 33.2476C8.58622 34.1326 8.66044 36.0359 8.79215 38.2516C8.93612 40.6735 12.1651 41.424 14.821 42.5976C17.8658 43.9431 22.7755 44.4907 24.7633 45.9788C25.6185 46.619 26.0949 47.519 26.4521 48.4672C26.98 49.8685 26.2664 51.5091 25.2957 52.9535C24.0215 54.8496 19.5872 58.0317 13.9271 62.02C8.48769 65.2489 7.14257 65.819 6.23655 66.2503C5.74432 66.4752 5.1862 66.7124 3.50098 67.2458" stroke="#641A33" stroke-width="7" stroke-linecap="round"/>
<path d="M38.0654 46.9046C39.7063 46.9046 44.3718 46.401 47.563 44.7583C50.4611 43.2664 54.4154 39.7584 55.891 37.0679C56.8772 35.2697 56.8403 32.3595 56.7249 29.7794C56.6807 28.7936 56.2258 28.5089 54.9373 28.3452C51.451 27.9023 48.6901 28.2858 47.7132 28.7448C45.0283 30.0061 43.4392 33.2837 41.3116 39.197C38.8443 46.0543 40.9452 53.447 42.2195 54.6647C43.3959 55.7888 51.5925 55.4256 57.3549 54.8678C63.9353 54.2307 66.6102 50.8713 72.688 44.4322C77.4551 39.3817 78.2701 38.2843 78.6318 38.1215C79.5782 37.6955 79.3302 47.9595 79.9931 57.3813C80.2749 61.3856 81.0687 45.5892 82.0433 41.2331C83.648 34.0599 86.9515 31.3585 89.1008 29.3978C91.6977 27.9056 93.4556 27.3983 99.2227 27.385C100.463 27.4725 100.851 27.6492 102.059 28.036" stroke="#641A33" stroke-width="7" stroke-linecap="round"/>
<path d="M125.344 30.157C122.698 30.157 116.456 30.4598 114.232 31.3584C111.019 32.6571 109.997 34.2534 108.509 36.5455C105.154 41.7154 100.038 50.4338 98.852 52.8227C98.4516 53.6288 98.4068 55.6068 98.4829 58.1895C98.529 59.7538 99.4739 60.4517 100.225 60.928C101.06 61.4572 102.301 61.5664 103.577 61.4069C104.701 61.2665 107.851 57.5257 112.345 52.6165C116.429 48.1546 122.022 41.9857 124.119 38.7713C125.571 36.5455 125.526 34.2018 125.564 32.7824C125.772 25.1064 127.148 49.0168 127.526 51.8813C127.812 54.0383 128.396 55.8197 130.197 57.4816C131.996 59.1411 135.268 58.902 137.707 58.2932C142.269 54.6465 147.787 49.429 149.193 47.4173C149.755 46.5894 150.009 46.1534 150.53 45.3953" stroke="#641A33" stroke-width="7" stroke-linecap="round"/>
<path d="M121.64 21.7281C121.671 21.1321 125.648 13.0718 128.274 7.44786C128.489 6.44875 128.724 5.6676 129.093 4.9583C129.293 4.60173 129.519 4.25202 130.073 3.50024" stroke="#641A33" stroke-width="7" stroke-linecap="round"/>
</svg>
