<svg width="156" height="69" viewBox="0 0 156 69" fill="none" xmlns="http://www.w3.org/2000/svg">
<path d="M38.3072 11.498C37.659 11.498 35.1117 11.7847 30.0812 13.7293C22.2769 16.7461 18.5729 21.6903 15.627 25.6838C13.386 28.7218 12.2407 29.9333 11.1354 31.4087C9.73758 33.2746 9.54565 35.1241 9.60906 36.2831C9.75846 39.0139 14.8645 40.6732 16.1217 42.1478C17.486 43.7481 20.7652 45.7214 23.4867 47.0773C26.2245 48.4414 28.286 49.0425 29.6251 50.1437C29.9212 50.3873 29.8742 50.8581 29.8405 51.254C29.5955 54.1287 24.6442 57.9423 21.862 59.7584C17.1725 62.8194 11.6826 64.1804 9.88546 64.7761C8.75271 65.0126 7.69588 65.1734 6.4908 65.2468C5.7202 65.2717 4.62667 65.2717 3.5 65.2717" stroke="#641A33" stroke-width="7" stroke-linecap="round"/>
<path d="M45.8686 45.0927C47.4943 45.0927 51.6494 44.7849 53.9509 43.8348C56.2804 42.8731 57.9594 40.9753 59.2638 39.2678C60.742 37.3328 60.3255 33.3784 59.8346 30.9044C59.6791 30.121 58.6212 29.7307 57.6451 29.3546C54.3747 28.0946 49.3678 29.154 47.8336 29.9328C46.1203 30.8026 45.1368 33.4136 43.9901 36.0875C41.5367 41.8078 40.9465 50.6718 41.5198 55.0841C41.6841 56.3479 42.3425 57.1961 42.7177 57.9275C43.6249 59.6961 49.1329 59.5061 54.5365 58.6539C59.878 57.8116 63.1707 53.9001 66.6633 50.5102C71.7504 45.5726 75.5489 41.3636 79.0719 38.886C79.5938 38.519 79.835 38.1634 80.0608 38.1754C80.6049 38.2044 80.6453 45.7873 80.7121 56.5082C80.7476 62.1972 81.6467 63.8514 81.8385 64.7012C82.0167 65.4907 82.8115 60.733 84.3249 52.2245C85.1651 47.5006 86.4087 45.227 88.2563 42.7354C91.1324 38.8569 96.4883 34.3267 102.318 30.1052C104.892 28.3464 106.684 27.3659 107.846 26.7334C109.008 26.1008 109.486 25.846 110.198 25.5269" stroke="#641A33" stroke-width="7" stroke-linecap="round"/>
<path d="M126.296 29.3313C124.933 29.3313 121.722 29.6088 117.39 32.7279C113.993 35.1736 110.577 39.7908 107.389 43.9192C105.299 46.6266 102.429 48.9951 100.214 51.3438C98.9312 52.7048 98.1584 56.626 97.9808 62.62C97.9504 63.6441 98.4681 63.8702 99.0799 63.9929C101.861 64.5507 106.544 61.738 113.374 57.0792C118.415 53.6402 122.724 48.2848 125.331 44.7599C129.886 38.6013 128.362 35.7008 128.226 34.5518C128.165 34.0363 127.82 33.7161 127.483 33.4729C127.147 33.2296 126.754 33.0878 126.35 33.0695C125.945 33.0512 125.542 33.1607 125.189 33.4732C123.456 35.0082 123.738 41.8073 124.313 46.6947C124.599 49.1345 126.318 50.6859 127.511 52.8478C128.085 53.8887 128.767 54.6621 129.442 55.229C130.81 56.3778 136.958 56.2712 141.435 55.8853C143.874 55.6749 145.921 53.3346 148.496 50.9436C150.093 49.1769 151.19 47.6849 151.615 46.7548C151.811 46.3107 151.969 45.9231 152.133 45.5238" stroke="#641A33" stroke-width="7" stroke-linecap="round"/>
<path d="M123.975 18.9437C123.975 18.9149 123.975 18.8862 124.034 18.6026C124.094 18.3191 124.213 17.7817 125.6 15.0955C126.986 12.4092 129.637 7.59053 132.225 3.50049" stroke="#641A33" stroke-width="7" stroke-linecap="round"/>
</svg>
