<svg width="76" height="76" viewBox="0 0 76 76" fill="none" xmlns="http://www.w3.org/2000/svg">
<g clip-path="url(#clip0_82_315)">
<path d="M67.7977 55.9867C67.8102 55.8453 67.7947 55.7028 67.7521 55.5674C67.7095 55.432 67.6407 55.3063 67.5495 55.1975C67.4584 55.0887 67.3467 54.9989 67.2208 54.9333C67.095 54.8677 66.9574 54.8275 66.816 54.815C66.6746 54.8025 66.5322 54.818 66.3968 54.8606C66.2614 54.9032 66.1357 54.972 66.0269 55.0632C65.9181 55.1543 65.8283 55.266 65.7627 55.3919C65.697 55.5177 65.6568 55.6553 65.6444 55.7967C65.2644 66.4367 65.3594 69.825 64.441 71.0917C56.7852 70.7274 49.1131 70.9073 41.4827 71.63C21.0894 72.1683 22.4827 71.7883 12.6027 72.01C12.3494 72.01 11.8427 71.6617 11.621 71.82C11.8744 62.6683 11.621 59.375 11.621 56.4933C11.621 53.6117 9.5627 54.815 9.5627 56.4933C9.5627 58.1717 9.5627 55.0683 9.02436 69.16C9.02436 70.3317 8.39103 72.3267 9.30936 73.72C9.70169 74.1715 10.1891 74.5306 10.7366 74.7715C11.2841 75.0124 11.8781 75.1291 12.476 75.1133C21.026 75.335 21.976 75.5567 27.4544 75.5883C49.621 75.5883 46.8027 74.005 63.8077 74.005C68.621 73.91 67.7977 70.0783 67.7977 55.9867Z" fill="black"/>
<path d="M69.35 51.205C58.9 50.7934 52.2183 51.585 21.4066 51.5217C16.435 51.5217 8.51831 52.0284 8.20165 52.06C6.96665 52.06 5.35165 52.06 5.57331 53.4534C5.63331 53.6936 5.77918 53.9035 5.98337 54.0435C6.18757 54.1835 6.43596 54.244 6.68165 54.2134C24.51 54.2134 66.8483 53.4217 69.35 53.3584C69.6355 53.3584 69.9094 53.2449 70.1113 53.043C70.3132 52.8411 70.4267 52.5673 70.4267 52.2817C70.4267 51.9962 70.3132 51.7223 70.1113 51.5204C69.9094 51.3185 69.6355 51.205 69.35 51.205Z" fill="black"/>
<path d="M55.4795 59.5017C46.4545 59.7867 40.3112 58.9634 31.9829 59.5017C28.8162 59.7867 17.7012 60.9901 17.6062 60.9901C17.5799 59.1011 17.4105 57.2168 17.0995 55.3534C16.8462 54.5301 15.0095 54.2134 15.1679 55.6384V61.3701C15.1679 62.7951 16.5612 63.4601 17.9862 63.6501C18.8729 63.6501 15.8962 63.6501 38.8862 62.8584C43.3512 62.8584 46.7079 62.8584 51.7745 62.6367C58.8362 61.9084 58.9312 62.2251 60.0079 61.6867C62.4145 60.4517 62.0029 57.6967 61.6229 54.2134C61.6229 53.6117 59.3745 53.4534 59.4062 54.6567C59.5329 60.8001 59.2162 59.4384 55.4795 59.5017Z" fill="black"/>
<path d="M74.1948 43.9533C70.4265 40.5333 72.1998 47.5 72.8331 30.3683C72.8331 25.9983 72.8331 21.5967 72.6748 17.2583C72.741 15.0701 72.6564 12.8799 72.4215 10.7033C71.3448 5.16168 67.2598 6.14334 62.4148 5.89001L53.2315 5.00334C47.2884 5.49724 41.3146 5.49724 35.3715 5.00334C28.85 4.8513 22.3252 5.09453 15.8331 5.73168C12.3498 5.73168 6.96646 5.13001 4.9398 8.36001C3.86313 10.1017 4.1798 9.31001 4.40147 30.78C3.92599 35.0919 3.86237 39.4394 4.21147 43.7633C1.96313 44.0483 0.411465 44.8083 0.0947987 48.1017C-0.00529188 51.7921 0.259888 55.4834 0.886465 59.1217C1.39313 62.795 0.949799 66.5 5.82647 66.12C6.11486 66.1036 6.38546 65.9753 6.58065 65.7624C6.77584 65.5495 6.88018 65.2687 6.87146 64.98C6.87146 63.2067 4.5598 64.5683 3.7048 63.3017C3.29555 61.8393 3.11397 60.3227 3.16647 58.805C2.91313 56.715 2.02647 48.6717 3.16647 46.9617C3.4198 46.6133 4.02147 46.645 12.8881 45.98C36.2265 44.08 54.0548 46.6767 63.2065 45.6317C67.2598 45.1567 71.9148 44.3017 73.2131 47.31C73.2131 59.47 73.7198 61.1167 72.5798 62.5733C72.0415 63.2383 68.7165 62.7634 69.4131 64.505C69.4525 64.6236 69.5149 64.7333 69.5967 64.8278C69.6785 64.9223 69.7782 64.9997 69.8899 65.0556C70.0017 65.1114 70.1234 65.1447 70.2481 65.1535C70.3728 65.1623 70.498 65.1464 70.6165 65.1067C71.1865 64.9167 72.1365 64.9167 72.8965 64.695C76.0631 63.7133 75.5881 58.3617 75.6198 56.05C75.8098 48.3234 76.9498 46.455 74.1948 43.9533ZM69.6665 42.2433C65.6448 41.8633 66.3415 42.655 56.5881 42.2433C32.3948 41.5467 33.3765 40.3433 6.0798 43.3833C5.89763 39.1506 6.10965 34.9101 6.71313 30.7167C7.06146 15.4217 7.09313 12.16 7.09313 11.7167C7.09313 11.9383 7.09313 11.4317 7.09313 11.7167C7.09313 9.78501 7.91647 9.46834 9.94313 9.21501C11.9028 9.05384 13.8719 9.04326 15.8331 9.18334L30.3998 8.51834C43.3831 9.02501 43.3831 9.05668 45.8215 8.93001C51.2787 8.33711 56.7884 8.4222 62.2248 9.18334C63.4281 9.18334 67.8931 8.86668 68.5581 9.59501C69.9831 11.0833 69.5398 15.2317 69.7298 17.48C70.4216 25.7209 70.4004 34.0061 69.6665 42.2433Z" fill="black"/>
<path d="M31.666 2.69171C35.8838 2.9644 40.1148 2.9644 44.3326 2.69171C44.5905 2.64766 44.8244 2.51382 44.9931 2.31388C45.1618 2.11395 45.2543 1.8608 45.2543 1.59921C45.2543 1.33763 45.1618 1.08448 44.9931 0.884543C44.8244 0.684607 44.5905 0.550771 44.3326 0.506714C36.511 0.506714 36.606 0.855047 31.666 0.823381C31.4477 0.863742 31.2504 0.979276 31.1084 1.14992C30.9664 1.32057 30.8887 1.53555 30.8887 1.75755C30.8887 1.97954 30.9664 2.19452 31.1084 2.36517C31.2504 2.53582 31.4477 2.65135 31.666 2.69171Z" fill="black"/>
<path d="M36.1311 16.5616C24.0978 19.7283 27.5494 39.4566 41.1661 36.2266C54.1811 33.1232 48.4178 13.2366 36.1311 16.5616ZM44.6178 30.1782C43.5108 31.502 41.991 32.4152 40.3026 32.7713C38.6141 33.1274 36.855 32.9056 35.3078 32.1416C31.6661 30.4949 29.8928 21.4066 36.8594 18.9999C43.2244 16.5616 47.9428 25.3332 44.6178 30.1782Z" fill="black"/>
<path d="M65.2332 33.1866C61.6565 32.6858 58.0234 32.7499 54.4666 33.3766C54.2188 33.4312 54.0029 33.582 53.8663 33.7958C53.7297 34.0096 53.6836 34.2689 53.7382 34.5166C53.7928 34.7644 53.9436 34.9803 54.1574 35.1169C54.3712 35.2535 54.6305 35.2995 54.8782 35.2449C57.6966 34.7699 60.7999 35.5933 65.3282 35.2449C65.4912 35.2863 65.6616 35.2889 65.8258 35.2526C65.9899 35.2163 66.1433 35.142 66.2736 35.0357C66.4039 34.9294 66.5075 34.7941 66.5761 34.6406C66.6447 34.4871 66.6764 34.3197 66.6686 34.1517C66.6609 33.9838 66.6139 33.82 66.5314 33.6734C66.449 33.5269 66.3334 33.4017 66.1938 33.3079C66.0543 33.2141 65.8947 33.1542 65.7279 33.1332C65.5611 33.1121 65.3917 33.1304 65.2332 33.1866Z" fill="black"/>
<path d="M66.0882 15.2001C65.822 14.641 65.4232 14.1554 64.9265 13.7856C64.4298 13.4159 63.8502 13.1731 63.2382 13.0784C60.1853 12.5457 57.0534 12.6753 54.0549 13.4584C51.7749 14.0601 51.6166 22.1667 52.5666 24.5417C53.5166 26.9167 57.6966 26.6951 59.6282 26.8218C62.1932 26.8218 65.9616 27.8667 66.8166 23.0217C67.0554 20.3919 66.8086 17.7406 66.0882 15.2001ZM54.6249 15.5484C57.1825 15.1172 59.8012 15.2142 62.3199 15.8334C59.4621 17.0539 56.8617 18.8055 54.6566 20.9951C54.2397 19.2046 54.2289 17.3436 54.6249 15.5484ZM62.9216 23.2117C60.4343 23.408 57.9355 23.408 55.4482 23.2117C57.9068 21.1341 60.5456 19.2796 63.3332 17.6701C63.4471 19.5274 63.3087 21.3916 62.9216 23.2117Z" fill="black"/>
<path d="M24.4469 15.6434C23.3702 11.5267 18.3986 13.0151 11.4319 13.8067C11.3237 13.6466 11.1677 13.5247 10.9862 13.4584C10.8047 13.3921 10.6069 13.3847 10.421 13.4374C10.235 13.49 10.0704 13.5999 9.9506 13.7515C9.83077 13.9031 9.76181 14.0887 9.75355 14.2817C9.48449 17.6753 9.48449 21.0848 9.75355 24.4784C9.94988 27.8428 9.94988 31.2157 9.75355 34.5801C9.97522 37.7467 13.9336 37.9684 17.0686 37.7467C18.5252 37.7467 22.7369 37.0817 23.4019 36.9234C26.3152 36.1951 25.9352 32.5534 25.9036 30.4317C25.6832 25.4797 25.1969 20.5432 24.4469 15.6434ZM14.0919 34.1684H13.1102C12.8252 30.4317 11.5902 19.0001 11.5902 15.8334H15.4852L15.8336 34.1367C15.2554 34.2042 14.6721 34.2148 14.0919 34.1684ZM18.1769 33.8201C18.4609 27.7524 18.2278 21.6715 17.4802 15.6434C18.3986 15.6434 20.9002 15.3584 21.5969 15.9601C21.9769 22.8951 22.4519 32.9334 22.3252 33.3134C20.9682 33.6506 19.5751 33.8208 18.1769 33.8201Z" fill="black"/>
</g>
<defs>
<clipPath id="clip0_82_315">
<rect width="76" height="76" fill="white"/>
</clipPath>
</defs>
</svg>
