<svg width="90" height="39" viewBox="0 0 90 39" fill="none" xmlns="http://www.w3.org/2000/svg">
<path d="M3.16635 37.5206C2.11091 37.5206 1.31934 37.2304 0.791622 36.6499C0.263906 36.0694 4.77229e-05 35.4757 4.77229e-05 34.8688C4.77229e-05 34.1564 0.131977 33.6155 0.395835 33.2461C0.659693 32.8767 1.17422 32.5997 1.93941 32.415C2.94207 32.2039 3.98431 31.94 5.06612 31.6234C6.17433 31.3068 7.22976 30.9769 8.23242 30.6339C9.26147 30.2645 10.1586 29.8951 10.9238 29.5257C11.689 29.1299 12.2431 28.7605 12.5861 28.4175C12.1639 28.18 11.4911 27.903 10.5676 27.5864C9.64406 27.2433 8.61501 26.8476 7.48042 26.399C6.37222 25.9241 5.3036 25.37 4.27455 24.7367C3.2455 24.1034 2.40116 23.3646 1.74151 22.5203C1.08187 21.6759 0.752043 20.7129 0.752043 19.631C0.752043 18.1271 1.13464 16.7154 1.89983 15.3961C2.66501 14.0768 3.68087 12.8499 4.94739 11.7153C6.21391 10.5807 7.58597 9.53847 9.06357 8.58858C10.5676 7.63869 12.0584 6.78115 13.536 6.01596C15.04 5.22439 16.3856 4.52516 17.573 3.91829C18.0216 3.65443 18.4437 3.48293 18.8395 3.40377C19.2617 3.29823 19.6443 3.24545 19.9873 3.24545C21.1747 3.24545 21.9926 3.5357 22.4412 4.11618C22.8897 4.69667 23.114 5.29035 23.114 5.89723C23.114 6.3194 22.9161 6.82073 22.5203 7.40122C22.1245 7.95532 21.4913 8.46984 20.6206 8.94479C19.7762 9.41973 18.6548 9.76275 17.2564 9.97384C17.0189 10.0002 16.8078 10.0266 16.6231 10.053C15.5677 10.5807 14.4331 11.214 13.2193 11.9528C12.0056 12.6916 10.8578 13.47 9.77599 14.2879C8.72056 15.0795 7.84983 15.8711 7.1638 16.6626C6.47776 17.4542 6.13475 18.1666 6.13475 18.7999C6.13475 19.5123 6.42499 20.1588 7.00548 20.7392C7.58597 21.2933 8.32477 21.8079 9.22189 22.2828C10.1454 22.7314 11.1085 23.1667 12.1111 23.5889C13.1402 24.0111 14.1033 24.4465 15.0004 24.895C15.9239 25.3172 16.6759 25.7921 17.2564 26.3198C17.8369 26.8476 18.1271 27.4412 18.1271 28.1009C18.1271 28.998 17.8237 29.8555 17.2168 30.6735C16.6099 31.4915 15.8183 32.2567 14.8421 32.9691C13.8658 33.6551 12.7972 34.2752 11.6362 34.8293C10.4752 35.3834 9.32743 35.8583 8.19284 36.2541C7.08464 36.6763 6.08198 36.9929 5.18486 37.204C4.28774 37.4151 3.6149 37.5206 3.16635 37.5206ZM35.8375 18.8395C35.8375 20.5545 34.8612 22.2564 32.9087 23.9451C30.9825 25.6074 27.9877 27.085 23.9243 28.3779C23.9243 28.4043 23.9243 28.4439 23.9243 28.4967C23.9243 29.3674 24.0299 30.0666 24.241 30.5943C24.452 31.0957 24.9138 31.3463 25.6262 31.3463C26.6816 31.3463 27.8558 31.0297 29.1487 30.3965C30.468 29.7368 31.8269 28.9057 33.2253 27.903C34.6502 26.8739 36.0354 25.7921 37.3811 24.6575C38.7268 23.5229 39.9669 22.4543 41.1015 21.4517C42.2625 20.4226 43.2387 19.5915 44.0303 18.9582C44.8483 18.2986 45.3892 17.9687 45.653 17.9687C46.2071 17.9687 46.6689 18.1798 47.0383 18.602C47.4341 19.0242 47.632 19.6574 47.632 20.5018C47.632 20.9767 47.6056 21.544 47.5528 22.2037C48.7138 20.1983 50.0595 18.5492 51.5898 17.2563C53.1202 15.937 54.6242 14.9608 56.1018 14.3275C57.6058 13.6678 58.8855 13.338 59.941 13.338C61.1283 13.338 61.9331 13.5755 62.3553 14.0504C62.7774 14.499 62.9885 14.9739 62.9885 15.4753C62.9885 15.7655 62.9226 16.0558 62.7906 16.346C62.6851 16.6099 62.3948 16.9001 61.9199 17.2167C61.4713 17.5334 60.7193 17.9028 59.6639 18.3249C58.2655 18.8527 56.933 19.4727 55.6665 20.1851C54.4263 20.8976 53.2785 21.8738 52.2231 23.114C51.1941 24.3277 50.2574 25.9636 49.413 28.0217C48.5951 30.0534 47.909 32.6656 47.3549 35.8583C47.1702 36.7554 46.88 37.3623 46.4842 37.6789C46.0884 38.022 45.6267 38.1935 45.0989 38.1935C45.0462 38.1935 44.9538 38.1935 44.8219 38.1935C44.5844 38.2198 44.3337 38.1935 44.0699 38.1143C43.8324 38.0615 43.5949 37.8373 43.3575 37.4415C43.1464 37.0721 42.9749 36.4256 42.8429 35.5021C42.711 34.5786 42.6451 33.2593 42.6451 31.5442C42.6451 30.5152 42.6846 29.4334 42.7638 28.2988C42.8693 27.1378 43.0013 25.9373 43.1596 24.6971C41.8139 26.0164 40.3759 27.3489 38.8455 28.6946C37.3151 30.0402 35.732 31.2804 34.0961 32.415C32.4865 33.5232 30.9034 34.4203 29.3466 35.1063C27.8162 35.7924 26.3914 36.1354 25.0721 36.1354C23.3043 36.1354 21.853 35.5681 20.7184 34.4335C19.6102 33.2725 19.0561 31.4915 19.0561 29.0904C19.0561 26.7156 19.3728 24.5652 20.006 22.639C20.6657 20.6865 21.51 19.011 22.5391 17.6125C23.5681 16.2141 24.6631 15.1455 25.8241 14.4067C27.0115 13.6415 28.1197 13.2589 29.1487 13.2589C31.3387 13.2589 33.001 13.7866 34.1356 14.842C35.2702 15.8711 35.8375 17.2035 35.8375 18.8395ZM24.4388 24.8554C25.1249 24.5124 25.8505 24.1166 26.6157 23.6681C27.4073 23.1931 28.1461 22.705 28.8321 22.2037C29.5181 21.6759 30.0722 21.1614 30.4944 20.6601C30.9429 20.1588 31.1672 19.6838 31.1672 19.2353C31.1672 18.4965 30.9561 18.0479 30.534 17.8896C30.1382 17.7049 29.5973 17.6125 28.9112 17.6125C28.1988 17.6125 27.5524 17.9951 26.9719 18.7603C26.3914 19.4991 25.8901 20.4226 25.4679 21.5308C25.0457 22.639 24.7027 23.7472 24.4388 24.8554ZM57.5849 37.481C56.7406 37.481 55.9754 37.2436 55.2893 36.7686C54.6033 36.3201 54.0624 35.7264 53.6666 34.9876C53.2708 34.2224 53.0729 33.4044 53.0729 32.5337C53.0729 30.8978 53.4291 29.3014 54.1416 27.7447C54.8804 26.1879 55.8434 24.7103 57.0308 23.3119C58.2182 21.9134 59.5111 20.6337 60.9095 19.4727C62.3344 18.2854 63.746 17.2695 65.1444 16.4252C66.5693 15.5808 67.8622 14.9212 69.0232 14.4462C70.2105 13.9713 71.134 13.7338 71.7937 13.7338C72.5589 13.7338 73.1789 13.9053 73.6539 14.2483C74.1552 14.565 74.4059 15.0663 74.4059 15.7523C74.4059 15.9634 74.3531 16.1349 74.2475 16.2669C74.5906 16.346 74.8676 16.5439 75.0787 16.8605C75.2898 17.1772 75.3953 17.6521 75.3953 18.2854C75.3953 18.5492 75.3294 19.2353 75.1974 20.3435C75.0655 21.4517 74.9204 22.7973 74.7621 24.3805C74.6301 25.9636 74.5642 27.6127 74.5642 29.3278C74.5642 29.5917 74.6038 29.8292 74.6829 30.0402C74.7621 30.2249 74.9336 30.3173 75.1974 30.3173C76.2529 30.3173 77.3215 30.1062 78.4033 29.684C79.5115 29.2355 80.5801 28.6946 81.6092 28.0613C82.6646 27.4017 83.6145 26.7552 84.4589 26.122C85.3296 25.4623 86.0552 24.9214 86.6357 24.4992C87.2426 24.0507 87.6383 23.8264 87.823 23.8264C88.7202 23.8264 89.1687 24.2749 89.1687 25.1721C89.1687 25.4095 88.8785 25.9109 88.298 26.6761C87.7439 27.4149 86.9787 28.2724 86.0024 29.2487C85.0262 30.1986 83.9311 31.1484 82.7174 32.0983C81.53 33.0218 80.2899 33.787 78.997 34.3939C77.7305 35.0008 76.5035 35.3042 75.3162 35.3042C73.865 35.3042 72.7568 34.9612 71.9916 34.2752C71.2528 33.5891 70.725 32.6656 70.4084 31.5047C70.1182 30.3173 69.9599 28.9848 69.9335 27.5072C68.5878 29.4334 67.1893 31.1484 65.7381 32.6524C64.3133 34.13 62.9017 35.3042 61.5032 36.1749C60.1048 37.0457 58.7987 37.481 57.5849 37.481ZM71.5958 17.6521C69.01 18.8922 66.688 20.3171 64.6299 21.9266C62.5718 23.5098 60.9359 25.1721 59.7222 26.9135C58.5348 28.655 57.9411 30.3305 57.9411 31.94C57.9411 32.3886 58.1522 32.6129 58.5744 32.6129C59.0757 32.6129 59.7354 32.3226 60.5533 31.7421C61.3977 31.1616 62.308 30.3965 63.2842 29.4466C64.2605 28.4703 65.2368 27.3885 66.2131 26.2011C67.1893 24.9874 68.0997 23.7472 68.944 22.4807C69.7883 21.2142 70.4612 20.0004 70.9625 18.8395C71.1472 18.4173 71.3583 18.0215 71.5958 17.6521ZM70.0522 12.5465C69.0232 12.5465 68.5086 12.0319 68.5086 11.0029C68.5086 10.8182 68.6538 10.3564 68.944 9.61763C69.2606 8.87883 69.6564 8.00809 70.1314 7.00543C70.6063 5.97639 71.0944 4.96053 71.5958 3.95787C72.0971 2.95521 72.5589 2.09767 72.981 1.38526C73.2449 0.936696 73.5351 0.593681 73.8518 0.356208C74.1948 0.118736 74.6301 -3.95515e-07 75.1579 -3.95515e-07C75.9758 -3.95515e-07 76.5827 0.263857 76.9785 0.791573C77.3743 1.2929 77.5722 1.96574 77.5722 2.81009C77.5722 2.99479 77.4007 3.37738 77.0576 3.95787C76.7146 4.51197 76.2793 5.17162 75.7515 5.93681C75.2238 6.702 74.6697 7.48038 74.0892 8.27195C73.5351 9.06353 73.0206 9.77594 72.5457 10.4092C72.0971 11.0161 71.7673 11.4514 71.5562 11.7153C71.3451 11.9792 71.134 12.1902 70.9229 12.3486C70.7119 12.4805 70.4216 12.5465 70.0522 12.5465Z" fill="#A1111D"/>
</svg>
